<svg xmlns:xlink="http://www.w3.org/1999/xlink" xmlns="http://www.w3.org/2000/svg" style="enable-background:new 0 0 970 493" viewBox="0 0 970 493" xml:space="preserve" width="1200"  height="609.8969072164948" ><path d="M.1 0h970v493H.1z" style="fill:none"/><linearGradient gradientTransform="translate(0 -92.984)" gradientUnits="userSpaceOnUse" id="a" x1="170.979" x2="170.979" y1="475.136" y2="252.119"><stop offset="0" style="stop-color:#0167ca"/><stop offset="1" style="stop-color:#38a8fa"/></linearGradient><path d="M235 207.3c3.6-17.3-2.9-29.7-14.5-37.8-10.6-7.1-24-8.1-38.2-1.1l-59 26.6c-14.8 6.7-21.2 24-14.8 38.5 6.7 14.8 23.7 21.2 38.5 14.8l7.8-3.6-12.7 69c-3.6 20.8 9.9 37.8 28.3 41.4 19.5 3.6 38.5-9.2 41.7-28.7L235 207.3z" style="fill:url(#a)"/><linearGradient gradientTransform="translate(0 -92.984)" gradientUnits="userSpaceOnUse" id="b" x1="707.745" x2="707.745" y1="453.678" y2="251.826"><stop offset="0" style="stop-color:#c8c7c7"/><stop offset=".076" style="stop-color:#d6d5d5"/><stop offset=".216" style="stop-color:#e8e8e8"/><stop offset=".38" style="stop-color:#f5f5f5"/><stop offset=".59" style="stop-color:#fdfdfd"/><stop offset="1" style="stop-color:#fff"/></linearGradient><path d="M771.7 164.4c-32.5-4.7-65.3 14.3-77.8 41.1l2.1-11.7c5.3-23.7-4.6-30-21.5-30h-21.9c-20.8 0-25.5 11.3-28 24.4l-25.5 141.4c-2.1 9.6-.7 26.2 18 26.2h30.4c18 0 21.5-14.1 24-27.6l12.3-67.9c2.9-15.5 5.3-23 10.6-28.7 8.1-9.2 24.4-13.4 35.7-4.2 6.7 5.6 9.2 15.2 7.4 28.7l-12.3 73.5c-2.7 16.3 4.2 26.2 17.7 26.2h30.4c17.3 0 20.8-13.4 23.3-27.6l17.8-92.1c8.3-33.2-3.4-66-42.7-71.7z" style="fill:url(#b)"/><linearGradient gradientTransform="translate(0 -92.984)" gradientUnits="userSpaceOnUse" id="c" x1="576.811" x2="576.811" y1="256.048" y2="156.935"><stop offset="0" style="stop-color:#0167ca"/><stop offset="1" style="stop-color:#38a8fa"/></linearGradient><ellipse cx="576.8" cy="110.7" rx="35" ry="34.7" style="fill:url(#c)"/><linearGradient gradientTransform="translate(0 -92.984)" gradientUnits="userSpaceOnUse" id="d" x1="555.777" x2="555.777" y1="454.03" y2="252.252"><stop offset="0" style="stop-color:#c8c7c7"/><stop offset=".076" style="stop-color:#d6d5d5"/><stop offset=".216" style="stop-color:#e8e8e8"/><stop offset=".38" style="stop-color:#f5f5f5"/><stop offset=".59" style="stop-color:#fdfdfd"/><stop offset="1" style="stop-color:#fff"/></linearGradient><path d="M579 328c-2.5 14.8-6.7 27.6-24 27.6h-30.7c-14.8 0-20.2-11-17.3-25.5L532.2 188c2.5-15.2 9.2-24.4 28-24.4h23.3c19.8 0 24.7 9.6 20.5 30L579 328z" style="fill:url(#d)"/><linearGradient gradientTransform="translate(0 -92.984)" gradientUnits="userSpaceOnUse" id="e" x1="378.645" x2="378.645" y1="453.667" y2="252.253"><stop offset="0" style="stop-color:#c8c7c7"/><stop offset=".076" style="stop-color:#d6d5d5"/><stop offset=".216" style="stop-color:#e8e8e8"/><stop offset=".38" style="stop-color:#f5f5f5"/><stop offset=".59" style="stop-color:#fdfdfd"/><stop offset="1" style="stop-color:#fff"/></linearGradient><path d="M241.2 163.6c7.8 9.2 17 20.5 12.3 48.1l-12 64.8 2.1 52c.4 18.8 9.6 26.9 25.1 26.9h39.6c12.3 0 17.7-9.6 22.6-21.5l30-73.9 3.2 70.7c.4 15.5 8.1 25.1 22.6 25.1h44.9c12.7 0 18-7.8 23.7-21.5l57.6-141.4c6.3-14.5 2.5-29-13.1-29h-28.7c-10.6 0-18 3.6-22.3 13.8l-38.9 94.6-3.6-84.5c-.7-18-9.2-24-19.5-24h-29.3c-11.7 0-18.4 4.6-21.9 13.4l-38.9 95.5-3.6-87c-.4-16.3-6-21.9-19.1-21.9h-32.8v-.2z" style="fill:url(#e)"/></svg>