<svg width="53" height="15" viewBox="0 0 53 15" fill="none" xmlns="http://www.w3.org/2000/svg">
<path d="M9.36675 14V11.48L9.12675 10.928V6.416C9.12675 5.616 8.87875 4.992 8.38275 4.544C7.90275 4.096 7.15875 3.872 6.15075 3.872C5.46275 3.872 4.78275 3.984 4.11075 4.208C3.45475 4.416 2.89475 4.704 2.43075 5.072L1.08675 2.456C1.79075 1.96 2.63875 1.576 3.63075 1.304C4.62275 1.032 5.63075 0.896 6.65475 0.896C8.62275 0.896 10.1508 1.36 11.2388 2.288C12.3268 3.216 12.8708 4.664 12.8708 6.632V14H9.36675ZM5.43075 14.192C4.42275 14.192 3.55875 14.024 2.83875 13.688C2.11875 13.336 1.56675 12.864 1.18275 12.272C0.79875 11.68 0.60675 11.016 0.60675 10.28C0.60675 9.512 0.79075 8.84 1.15875 8.264C1.54275 7.688 2.14275 7.24 2.95875 6.92C3.77475 6.584 4.83875 6.416 6.15075 6.416H9.58275V8.6H6.55875C5.67875 8.6 5.07075 8.744 4.73475 9.032C4.41475 9.32 4.25475 9.68 4.25475 10.112C4.25475 10.592 4.43875 10.976 4.80675 11.264C5.19075 11.536 5.71075 11.672 6.36675 11.672C6.99075 11.672 7.55075 11.528 8.04675 11.24C8.54275 10.936 8.90275 10.496 9.12675 9.92L9.70275 11.648C9.43075 12.48 8.93475 13.112 8.21475 13.544C7.49475 13.976 6.56675 14.192 5.43075 14.192ZM16.2593 14V1.088H19.8353V4.736L19.3313 3.68C19.7153 2.768 20.3313 2.08 21.1793 1.616C22.0273 1.136 23.0593 0.896 24.2753 0.896V4.352C24.1153 4.336 23.9713 4.328 23.8433 4.328C23.7153 4.312 23.5793 4.304 23.4353 4.304C22.4113 4.304 21.5793 4.6 20.9393 5.192C20.3153 5.768 20.0033 6.672 20.0033 7.904V14H16.2593ZM32.8157 14.192C31.3437 14.192 30.0477 13.904 28.9277 13.328C27.8237 12.752 26.9677 11.968 26.3597 10.976C25.7517 9.968 25.4477 8.824 25.4477 7.544C25.4477 6.248 25.7437 5.104 26.3357 4.112C26.9437 3.104 27.7677 2.32 28.8077 1.76C29.8477 1.184 31.0237 0.896 32.3357 0.896C33.5997 0.896 34.7357 1.168 35.7437 1.712C36.7677 2.24 37.5757 3.008 38.1677 4.016C38.7597 5.008 39.0557 6.2 39.0557 7.592C39.0557 7.736 39.0477 7.904 39.0317 8.096C39.0157 8.272 38.9997 8.44 38.9837 8.6H28.4957V6.416H37.0157L35.5757 7.064C35.5757 6.392 35.4397 5.808 35.1677 5.312C34.8957 4.816 34.5197 4.432 34.0397 4.16C33.5597 3.872 32.9997 3.728 32.3597 3.728C31.7197 3.728 31.1517 3.872 30.6557 4.16C30.1757 4.432 29.7997 4.824 29.5277 5.336C29.2557 5.832 29.1197 6.424 29.1197 7.112V7.688C29.1197 8.392 29.2717 9.016 29.5757 9.56C29.8957 10.088 30.3357 10.496 30.8957 10.784C31.4717 11.056 32.1437 11.192 32.9117 11.192C33.5997 11.192 34.1997 11.088 34.7117 10.88C35.2397 10.672 35.7197 10.36 36.1517 9.944L38.1437 12.104C37.5517 12.776 36.8077 13.296 35.9117 13.664C35.0157 14.016 33.9837 14.192 32.8157 14.192ZM49.1168 14V11.48L48.8768 10.928V6.416C48.8768 5.616 48.6288 4.992 48.1328 4.544C47.6528 4.096 46.9088 3.872 45.9008 3.872C45.2128 3.872 44.5328 3.984 43.8608 4.208C43.2048 4.416 42.6448 4.704 42.1808 5.072L40.8368 2.456C41.5408 1.96 42.3888 1.576 43.3808 1.304C44.3728 1.032 45.3808 0.896 46.4048 0.896C48.3728 0.896 49.9008 1.36 50.9888 2.288C52.0768 3.216 52.6208 4.664 52.6208 6.632V14H49.1168ZM45.1808 14.192C44.1728 14.192 43.3088 14.024 42.5888 13.688C41.8688 13.336 41.3168 12.864 40.9328 12.272C40.5488 11.68 40.3568 11.016 40.3568 10.28C40.3568 9.512 40.5408 8.84 40.9088 8.264C41.2928 7.688 41.8928 7.24 42.7088 6.92C43.5248 6.584 44.5888 6.416 45.9008 6.416H49.3328V8.6H46.3088C45.4288 8.6 44.8208 8.744 44.4848 9.032C44.1648 9.32 44.0048 9.68 44.0048 10.112C44.0048 10.592 44.1888 10.976 44.5568 11.264C44.9408 11.536 45.4608 11.672 46.1168 11.672C46.7408 11.672 47.3008 11.528 47.7968 11.24C48.2928 10.936 48.6528 10.496 48.8768 9.92L49.4528 11.648C49.1808 12.48 48.6848 13.112 47.9648 13.544C47.2448 13.976 46.3168 14.192 45.1808 14.192Z" fill="white"/>
</svg>
