<svg width="470" height="627" viewBox="0 0 470 627" fill="none" xmlns="http://www.w3.org/2000/svg">
<path d="M166.965 2.80002C160.032 4.13336 151.099 6.00003 147.232 6.80002L140.165 8.26669L127.099 25.7333L114.165 43.3333L89.4986 53.7333L64.9653 64.1334L55.232 102.933L45.4986 141.733L35.232 153.867C29.4986 160.533 22.6986 168.8 19.8986 172.133L14.9653 178.267L21.7653 207.2L28.432 236L24.1653 241.733C21.632 244.8 15.4986 252.4 10.2986 258.667C5.09864 264.933 0.431973 270.667 0.0319726 271.333C-1.30136 273.6 39.4986 420.267 41.7653 421.6C42.832 422.133 55.3653 427.333 69.632 433.067L95.632 443.6L108.965 462.267C116.432 472.533 123.232 482.267 124.299 483.733C125.899 486.133 131.365 487.6 155.232 492.667C171.099 496 184.699 498.667 185.365 498.667C186.165 498.667 194.032 490.8 202.832 481.067L218.965 463.467V400.133V336.667L206.832 323.6L194.565 310.533L197.232 307.6C198.699 306 204.165 299.867 209.365 293.867L218.965 283.067V158.8V34.5334L202.832 17.3333C184.699 -2.26663 187.232 -1.19998 166.965 2.80002ZM191.365 30.2667L201.632 41.2V64.5334C201.632 87.7333 201.632 88 198.699 88.6667C190.299 90.5334 160.699 96 158.565 96C157.232 96 154.165 94 151.765 91.4667C149.365 88.9333 145.765 86.5334 143.499 86C136.699 84.5334 135.765 83.3333 131.099 69.0667L126.565 55.0667L138.032 39.6L149.499 24.2667L159.899 22C165.632 20.8 170.965 19.6 171.632 19.3333C172.432 19.0667 174.832 18.9333 176.965 19.0667C180.032 19.3333 183.232 21.7333 191.365 30.2667ZM120.432 74.2667C123.765 84.4 124.299 87.6 123.099 89.2C117.632 96.6667 116.299 99.8667 116.299 104.8V110.4L98.432 121.867C81.4986 132.8 80.1653 133.467 75.3653 132.533C72.5653 131.867 69.232 131.6 67.8986 131.867C65.8986 132.133 65.632 131.6 66.5653 128.4C67.0986 126.4 70.1653 113.867 73.4986 100.667L79.632 76.6667L97.632 69.0667C107.499 64.8 115.765 61.4667 115.899 61.3333C116.032 61.3333 118.032 67.2 120.432 74.2667ZM201.365 141.6L200.965 183.333L184.965 184.8C158.699 187.333 157.365 187.333 154.299 182.267C152.832 180 149.632 176.8 147.365 175.333L143.099 172.667L142.965 149.733V126.8L146.832 124.667C151.365 122.4 155.765 116.8 156.965 111.6C157.499 109.467 159.099 107.733 160.832 107.333C167.632 105.6 195.899 100.267 198.699 100.133L201.632 100L201.365 141.6ZM126.165 124.267L130.832 127.333V150L130.965 172.667L125.632 175.733C122.432 177.6 119.232 180.8 117.899 183.6L115.632 188.267L102.965 187.333C91.0986 186.533 90.032 186.133 85.8986 182.267C77.4986 174.133 65.3653 177.467 61.632 188.8C59.7653 194.267 60.832 198.133 65.3653 202.933C71.7653 209.867 82.432 208.667 87.7653 200.533C89.7653 197.6 90.6986 197.333 95.4986 197.867C98.5653 198.267 104.299 198.933 108.565 199.333C114.965 200 116.165 200.533 116.832 203.333C117.232 205.067 119.499 208.267 121.632 210.533L125.765 214.533L118.565 232.933L111.365 251.333L105.099 252.267C101.632 252.667 97.3653 254.133 95.632 255.2C93.8986 256.4 91.7653 257.333 90.9653 257.333C90.1653 257.333 79.7653 252.533 67.8986 246.667L46.2986 236L39.8986 209.333L33.4986 182.667L41.8986 172.533C46.5653 166.933 51.632 160.667 53.232 158.8L56.032 155.333L59.3653 158.533C63.8986 162.667 73.632 163.867 78.432 160.8C82.1653 158.267 85.632 151.333 85.632 146.4C85.632 144 89.0986 141.067 102.565 132.267C111.899 126.267 119.899 121.333 120.432 121.333C120.965 121.333 123.499 122.667 126.165 124.267ZM201.632 236.4V278L190.832 290.267L180.032 302.533L161.899 293.067C128.832 275.733 129.232 275.867 128.032 270.133C127.365 267.333 125.632 263.333 124.165 261.067L121.365 257.067L126.299 243.6C134.965 220 137.099 216 140.565 216C145.499 216 152.965 210 155.899 203.733L158.699 198L176.432 196.533C186.299 195.733 195.899 194.933 198.032 194.933L201.632 194.667V236.4ZM64.1653 258.133L85.0986 268.133L84.9653 273.067C84.9653 275.733 85.3653 279.6 85.8986 281.6C86.832 284.667 86.032 285.867 78.832 292.133C70.9653 298.933 70.5653 299.067 63.0986 298.8C56.432 298.533 54.6986 299.067 51.232 302C48.832 304 46.2986 307.867 45.3653 310.933C44.2986 314.4 41.8986 317.733 38.032 320.933C34.832 323.6 32.032 325.467 31.7653 325.2C30.9653 324.4 18.9653 279.6 18.9653 277.6C18.9653 274.933 40.5653 248 42.6986 248C42.9653 248 52.5653 252.533 64.1653 258.133ZM150.699 299.867C162.565 306.133 172.299 311.467 172.299 311.867C172.299 312.4 168.565 316.8 164.032 322C159.632 327.067 153.632 333.867 150.965 336.933L146.165 342.533L139.632 340.933L133.232 339.2L128.165 322C119.499 293.067 119.765 293.733 122.165 290C124.699 286.133 122.699 285.467 150.699 299.867ZM106.165 297.333C108.965 297.333 109.765 298.267 110.965 302.933C111.899 306.133 114.832 316.4 117.632 325.867L122.832 343.2L118.832 347.2C116.699 349.333 114.965 351.867 114.965 352.8C114.965 353.6 114.165 354.933 113.365 355.6C112.299 356.4 96.1653 357.333 76.1653 357.733L40.6986 358.533L37.7653 347.867C36.1653 341.867 34.9653 336.933 35.232 336.8C35.4986 336.667 38.1653 334.533 41.0986 332.267C47.7653 327.2 48.032 327.2 54.2986 330.8C66.1653 337.867 80.1653 327.467 78.432 312.933C77.7653 307.467 77.7653 307.2 86.032 300.533C94.1653 294 94.432 293.867 98.5653 295.6C100.965 296.533 104.432 297.333 106.165 297.333ZM192.032 331.333L201.632 342V365.6C201.632 378.667 201.232 389.333 200.832 389.333C200.165 389.333 164.699 370.4 160.165 367.6C158.832 366.8 157.365 363.733 156.832 360.667C156.432 357.733 155.499 354.4 154.832 353.2C154.032 351.6 157.099 347.2 167.365 335.467C174.699 326.933 181.232 320.133 181.632 320.267C182.165 320.533 186.832 325.467 192.032 331.333ZM114.299 370.667C114.832 372.133 116.699 375.2 118.565 377.467L122.032 381.467L111.499 403.467C105.765 415.6 100.565 425.867 100.032 426.133C98.6986 426.933 57.7653 409.867 55.3653 407.6C54.032 406.267 44.2986 373.6 44.2986 370.4C44.2986 369.867 53.4986 369.2 64.6986 368.933C75.7653 368.8 91.3653 368.4 99.232 368.267C112.432 368 113.499 368.133 114.299 370.667ZM177.499 390.133L201.632 402.933V429.6V456.4L194.032 465.067C189.765 469.733 185.099 475.2 183.632 476.933L180.832 480.267L158.965 475.467C145.099 472.4 136.165 469.867 134.699 468.4C133.365 467.067 127.365 458.8 121.099 450.133L109.899 434.133L115.899 421.467C119.232 414.4 124.432 403.467 127.365 396.933C131.899 387.2 133.365 385.333 135.899 385.333C139.365 385.333 148.965 380.933 150.299 378.667C150.699 378 151.632 377.333 152.299 377.333C152.965 377.333 164.299 383.067 177.499 390.133Z" fill="white"/>
<path d="M266.699 16.9333L251.099 34L250.965 159.067V284.267L262.299 296.8C268.565 303.733 273.632 309.867 273.632 310.4C273.632 310.933 268.565 317.067 262.299 324L250.965 336.667V400.667L251.099 464.667L266.432 481.6C274.965 491.067 282.699 498.667 283.632 498.667C285.632 498.667 341.899 486.667 342.965 486C343.499 485.733 350.299 476 358.299 464.267L372.832 443.2L399.632 432.8C414.299 427.067 426.965 421.733 427.765 420.8C428.565 420 432.165 408.267 436.032 394.667C439.765 381.067 448.832 348.667 456.299 322.4C463.632 296.267 469.632 274.4 469.632 273.733C469.632 273.067 463.099 264.533 454.965 254.667C446.965 244.933 440.299 236.533 440.299 235.867C440.299 235.2 443.365 222.267 447.099 207.067C452.965 182.933 453.632 178.933 452.032 176.4C451.099 174.933 443.899 166.133 436.165 157.067L422.032 140.667L413.765 107.2C409.232 88.8 404.965 71.6 404.299 69.0666C402.965 64.6666 402.032 64 383.099 55.4666C372.165 50.6666 361.365 46 359.232 45.2C356.299 44.1333 351.365 38.8 341.765 25.8666C333.099 14.5333 327.232 7.86664 325.365 7.33328C316.299 5.33328 286.565 -3.05176e-05 284.565 -3.05176e-05C283.365 -3.05176e-05 275.232 7.59998 266.699 16.9333ZM303.232 20.6666C308.565 21.7333 314.299 22.9333 315.899 23.3333C318.832 24 338.965 50.1333 338.965 53.3333C338.965 54.2666 335.499 59.0666 331.365 64.1333C324.565 72.1333 323.099 73.3333 319.099 73.3333C316.565 73.3333 312.432 74.6666 310.032 76.2666C298.165 84.4 299.499 100.667 312.432 107.333L315.899 109.2L317.499 139.867L319.232 170.533L314.299 174.933C311.632 177.2 308.832 180.533 308.165 182.267C306.832 185.733 305.632 185.867 282.565 184.4L268.299 183.6V111.733V40L278.432 29.3333C284.032 23.4666 289.765 18.6666 291.099 18.6666C292.432 18.6666 297.899 19.6 303.232 20.6666ZM368.965 68.1333C378.832 72.6666 387.365 76.9333 388.032 77.8666C389.232 79.2 404.299 138.4 404.299 141.333C404.299 143.067 398.565 146.533 369.365 162.533L344.432 176.267L337.899 173.067C330.032 169.333 330.165 170.267 328.832 133.333L327.899 108.667L332.032 104.267C337.365 98.5333 338.565 92.1333 335.899 85.0666L333.765 79.7333L341.899 69.8666C346.299 64.4 350.299 60 350.565 60C350.832 60 359.099 63.7333 368.965 68.1333ZM423.232 168.933L435.232 182.533L428.832 209.067L422.565 235.6L400.299 246.667L378.165 257.733L373.499 255.2C371.099 253.867 366.299 252.533 363.099 252.133L357.099 251.333L348.832 230.8L340.699 210.267L344.432 204.133C347.099 200 348.299 196.4 348.299 192.667V187.067L368.699 176C379.765 169.867 393.232 162.533 398.299 159.733C403.499 156.933 408.432 154.8 409.499 154.933C410.565 155.2 416.699 161.467 423.232 168.933ZM293.632 196.667L306.432 197.6L308.965 202.267C312.432 208.667 317.632 212.267 324.565 213.2L330.165 214L338.699 235.2L347.232 256.533L344.432 261.467C342.965 264.133 341.232 268.533 340.699 271.2C339.632 276.133 339.232 276.4 314.432 289.067L289.099 301.867L278.699 290.533L268.299 279.333V236.933V194.4L274.699 195.2C278.165 195.6 286.699 196.267 293.632 196.667ZM433.099 255.067C436.699 258.933 442.165 265.467 445.232 269.6L450.965 276.933L444.299 300.667C440.699 313.733 437.365 324.667 436.965 325.067C436.432 325.6 406.432 303.6 388.165 289.067C382.032 284.267 381.899 284 383.099 279.467C383.765 276.8 384.299 273.2 384.032 271.467C383.632 268.4 385.232 267.2 403.632 258.133C414.699 252.667 424.299 248.133 425.099 248.133C426.032 248 429.632 251.2 433.099 255.067ZM353.232 295.2C358.565 297.867 364.299 297.867 370.432 295.333L375.099 293.467L397.365 310.4C409.632 319.733 422.832 329.733 426.699 332.667C431.099 336 433.365 338.667 433.099 340C432.699 341.067 428.432 356.4 423.632 374C418.699 391.6 414.032 406.667 413.232 407.6C411.632 409.2 368.299 427.2 367.632 426.4C367.499 426.133 363.099 416.4 357.765 404.8L348.299 383.467L351.899 376.4L355.632 369.333L370.832 370.267C385.632 371.067 386.165 371.2 389.765 375.2C396.965 383.333 411.099 379.467 413.099 368.667C415.632 354.8 398.965 345.333 389.632 355.467C386.699 358.533 385.765 358.667 370.965 358.667H355.365L352.165 353.733C346.699 345.467 342.699 343.333 332.165 343.333H322.832L311.232 330.133C298.432 315.6 295.632 312.133 296.432 311.467C296.699 311.2 307.499 305.467 320.299 298.8L343.632 286.8L346.299 290C347.765 291.733 350.832 294 353.232 295.2ZM302.032 337.333C311.232 347.867 314.832 353.067 314.165 354.533C313.632 355.733 312.699 359.067 311.899 362.133C310.565 367.467 310.432 367.733 289.499 378.533L268.299 389.6V365.333V341.067L277.232 331.2C282.165 325.733 286.832 321.467 287.499 321.733C288.299 322 294.832 328.933 302.032 337.333ZM319.765 382.267C322.299 384.133 327.499 386.4 331.365 387.333L338.165 388.8L346.565 407.733L354.832 426.667H338.165H321.365L317.365 422.667C311.765 417.067 303.499 417.067 297.365 422.533C293.632 425.867 292.965 427.333 292.965 432.667C292.965 438 293.632 439.467 297.365 442.8C303.099 448 312.165 448.267 316.965 443.333C318.832 441.6 320.299 439.467 320.299 438.667C320.299 437.867 326.565 437.333 337.765 437.333C352.432 437.333 355.099 437.6 354.565 439.2C354.165 440.267 349.232 447.733 343.632 455.733L333.632 470.133L311.899 475.067C300.032 477.867 289.899 480 289.365 480C288.965 480 283.899 474.8 278.432 468.533L268.299 456.933V429.467V402L291.365 390.4C303.899 384 314.432 378.8 314.699 378.667C314.965 378.667 317.232 380.267 319.765 382.267Z" fill="white"/>
<path d="M30.1653 535.2C29.7653 536.133 29.632 540.267 29.8986 544.133L30.2986 551.333L44.6986 551.733L58.9653 552.133V588.667V625.333H69.632H80.2986V588.667V552H94.9653H109.632V542.667V533.333H70.2986C38.1653 533.333 30.6986 533.733 30.1653 535.2Z" fill="white"/>
<path d="M113.632 534.133C113.632 534.8 128.165 602.667 132.032 620L133.099 624.667L145.899 625.067L158.699 625.467L160.299 617.733C163.365 602.667 172.299 564.933 172.965 564.267C173.632 563.6 173.232 561.867 181.099 597.333C184.432 612.267 187.232 624.667 187.365 624.8C187.499 624.933 192.832 625.467 199.232 626C209.632 626.933 210.832 626.667 212.032 624.533C212.832 623.067 216.699 605.467 220.832 585.333C224.965 565.2 228.965 546.133 229.632 543.067C232.032 533.2 232.165 533.333 220.432 533.333H209.899L208.565 540.933C207.765 545.2 205.232 560.533 202.832 574.933C200.432 589.467 198.165 601.067 197.899 600.8C197.632 600.533 194.032 585.333 189.899 567.2L182.299 534L173.365 533.6L164.565 533.2L163.099 537.6C162.299 540 159.632 551.333 156.965 562.667C154.432 574 151.232 587.467 150.032 592.667L147.765 602L146.699 596.667C146.165 593.733 143.499 579.333 140.965 564.667C138.299 550 135.899 536.933 135.499 535.6C134.832 533.733 133.099 533.333 124.165 533.333C118.432 533.333 113.632 533.733 113.632 534.133Z" fill="white"/>
<path d="M243.899 534.133C243.365 534.667 242.965 555.467 242.965 580.267V625.333H253.632H264.299L264.032 579.6L263.632 534L254.299 533.6C249.099 533.467 244.432 533.6 243.899 534.133Z" fill="white"/>
<path d="M279.899 534.267C279.365 534.667 278.965 538.933 278.965 543.467V552L301.899 552.267L324.699 552.667L301.899 579.333L279.099 606L278.965 615.6V625.333H314.965H350.965V616.667V608L327.099 607.733L303.232 607.333L325.765 580.267L348.299 553.333V544.133C348.299 535.733 348.032 534.933 345.365 534.133C341.232 533.067 280.965 533.067 279.899 534.267Z" fill="white"/>
<path d="M361.232 534.267C360.699 534.667 360.299 538.933 360.299 543.467V552L383.632 552.267L407.099 552.667L395.365 566.533C388.965 574.133 378.699 586.133 372.699 593.2L361.632 606V615.6V625.333H397.632H433.632V616.667V608H410.299C397.499 608 386.965 607.6 386.965 607.2C386.965 606.667 396.699 594.667 408.699 580.533L430.299 554.667L431.099 544.933C431.499 539.733 431.632 534.933 431.365 534.267C430.699 533.067 362.432 532.933 361.232 534.267Z" fill="white"/>
</svg>
