<svg width="854" height="305" viewBox="0 0 854 305" fill="none" xmlns="http://www.w3.org/2000/svg">
<path d="M85.9804 93.8461C98.2616 145.462 108.585 187.692 109.119 187.692C109.653 187.692 119.62 148.199 131.189 100.103C142.937 52.0064 153.082 9.77569 153.972 6.25646L155.574 8.37735e-06H183.874H212.174L213.954 7.23394C214.844 11.3397 224.633 52.984 235.491 99.7115C246.526 146.439 255.959 185.542 256.493 186.519C257.027 187.497 267.528 146.244 279.81 94.6282L302.236 0.977589L439.821 0.391056L577.228 8.37735e-06L580.432 5.66985C582.034 8.79805 607.13 58.4582 635.964 116.135C664.798 173.811 688.827 220.929 689.361 220.929C689.895 220.929 715.703 171.465 746.495 110.856L802.384 0.977589H828.192H854V152.5V304.022H828.192H802.384L801.494 224.058L800.604 144.093L761.09 218.192C739.198 258.859 719.797 295.224 717.839 298.548L714.279 305H688.471H662.663L659.103 298.744C657.323 295.224 629.023 240.676 596.451 177.526L537.181 62.5641H443.381H349.581L346.733 72.7308C345.131 78.4007 330.358 132.753 314.161 193.558L284.437 304.022H256.849H229.261L207.012 210.763C194.731 159.343 184.408 117.308 183.874 117.308C183.34 117.308 173.373 155.433 161.625 201.965C150.056 248.301 139.377 290.532 137.953 295.615L135.461 305H109.119H82.5987L79.7508 294.638C78.3269 289.163 59.4601 221.125 38.1015 143.702C16.7429 66.2788 -0.521904 2.3461 0.0120609 1.36854C0.368038 0.586488 14.9631 8.37735e-06 32.228 8.37735e-06H63.7319L85.9804 93.8461ZM358.303 95.8013V121.218L438.041 121.609L517.602 122.196L518.136 152.891L518.67 183.782H438.397H358.303V244.391V305H329.824H301.346V287.99C301.346 271.176 308.288 242.24 350.471 80.5512C352.073 74.4903 354.209 70.3846 355.811 70.3846C357.769 70.3846 358.303 75.0769 358.303 95.8013ZM556.404 116.135L579.008 161.103V233.051V305H550.53H522.052V189.061C522.052 125.128 522.586 72.3397 523.298 71.5576C524.01 70.7756 526.68 70.3846 529.171 70.7756C532.909 71.3622 536.825 77.6185 556.404 116.135Z" fill="white"/>
</svg>
