<svg width="935" height="311" viewBox="0 0 935 311" fill="none" xmlns="http://www.w3.org/2000/svg">
<mask id="path-1-inside-1_4_13" fill="white">
<path d="M162.267 1.22451C119.867 5.89117 84.6667 22.8245 63.3333 48.6912C56 57.6245 48.1333 71.2245 44.5333 81.3579C42.8 86.5579 0 304.558 0 308.691C0 310.158 64.1333 310.425 371.067 310.025C779.2 309.625 748.533 310.291 783.867 301.758C829.2 290.825 864.667 265.758 880 233.758C884.4 224.425 888 210.025 909.867 113.091C923.467 52.5579 934.667 2.29117 934.667 1.49117C934.667 0.291169 841.6 -0.108831 553.067 0.0245021C343.067 0.157836 167.2 0.691169 162.267 1.22451ZM330.533 48.0245C327.067 71.3579 309.333 172.158 308.133 174.958C307.467 176.825 302.8 160.158 293.333 122.691L279.733 67.7579H260.667H241.733L212.533 120.558C196.533 149.625 182.533 174.425 181.6 175.625C180 177.491 180 177.491 180.533 175.091C180.933 173.625 185.733 146.025 191.333 113.758C204.933 34.5579 204.933 34.6912 209.2 34.0245C211.067 33.7579 239.733 33.3579 272.8 33.2245L332.8 33.0912L330.533 48.0245ZM416.533 40.0245C415.333 50.1579 380.4 251.758 377.733 264.025L375.6 274.425H361.067H346.533L347.333 268.025C348.8 257.491 384.133 48.8245 385.467 42.4245C386.267 39.0912 387.067 35.6245 387.467 34.6912C387.733 33.4912 392 33.0912 402.667 33.0912H417.467L416.533 40.0245ZM595.2 41.3579C594.8 46.0245 586.933 98.2912 577.733 157.758C568.533 217.091 560.8 267.758 560.4 270.025L559.733 274.425H496.533H433.333L434.133 268.025C434.533 264.558 437.867 243.358 441.467 220.958C445.067 198.425 448 179.358 448 178.558C448 177.491 459.6 177.091 489.2 177.091H530.4L531.2 173.358C532.533 166.825 538.667 126.825 538.667 124.558C538.667 122.691 534.667 122.425 498.933 122.425H459.067L461.467 108.025C462.8 100.158 464.267 91.7579 464.667 89.3579L465.467 85.0912H516.667H567.733L570 72.0245C571.2 64.9579 573.067 55.7579 574 51.7579C574.933 47.7579 576.133 41.8912 576.667 38.6912L577.6 33.0912H586.8H596.133L595.2 41.3579ZM752.133 52.0245C740.267 75.3579 692 165.491 690.667 166.825C689.733 167.891 663.333 64.0245 660 46.1579C659.2 42.2912 658.267 38.0245 657.867 36.6912C657.2 34.5579 660.267 34.4245 709.2 34.4245H761.2L752.133 52.0245ZM882.667 35.2245C882.667 35.6245 872.667 74.5579 860.533 121.491C836.533 214.558 836 216.158 822.933 230.558C816.133 238.025 798.533 251.758 795.733 251.758C794.933 251.758 794.8 249.491 795.2 246.691C795.733 244.025 796.267 239.091 796.667 235.758C797.6 226.558 823.733 57.8912 826.267 45.3579L828.4 34.4245H855.467C870.4 34.4245 882.667 34.8245 882.667 35.2245ZM146.267 56.0245C144.533 67.7579 112.4 255.891 110.4 266.025L108.667 274.425H81.0667C65.7333 274.425 53.3333 274.025 53.3333 273.625C53.3333 270.558 92.5333 102.558 94.2667 98.1579C99.3333 85.0912 110.933 70.4245 123.067 61.4912C129.067 57.0912 144.933 47.8912 146.8 47.7579C147.2 47.7579 146.933 51.4912 146.267 56.0245ZM750 192.558C745.2 223.225 740.267 253.625 739.067 260.025L736.8 271.491L732.133 272.425C729.467 272.825 701.6 273.625 670.133 274.025L612.933 274.691L613.867 266.825C615.333 252.691 633.867 137.091 634.667 137.091C635.067 137.091 641.6 161.358 649.2 191.091L663.2 245.225L681.867 244.825L700.667 244.425L729.2 190.025C744.8 160.158 757.867 135.891 758.133 136.158C758.533 136.425 754.8 161.758 750 192.558ZM263.333 194.425C273.867 237.891 281.333 270.691 281.333 273.358C281.333 273.891 258.267 274.425 230.133 274.425H178.8L184.533 263.358C188.667 255.358 243.733 157.225 250.4 145.758C251.333 144.158 250.133 139.758 263.333 194.425Z"/>
</mask>
<path d="M162.267 1.22451C119.867 5.89117 84.6667 22.8245 63.3333 48.6912C56 57.6245 48.1333 71.2245 44.5333 81.3579C42.8 86.5579 0 304.558 0 308.691C0 310.158 64.1333 310.425 371.067 310.025C779.2 309.625 748.533 310.291 783.867 301.758C829.2 290.825 864.667 265.758 880 233.758C884.4 224.425 888 210.025 909.867 113.091C923.467 52.5579 934.667 2.29117 934.667 1.49117C934.667 0.291169 841.6 -0.108831 553.067 0.0245021C343.067 0.157836 167.2 0.691169 162.267 1.22451ZM330.533 48.0245C327.067 71.3579 309.333 172.158 308.133 174.958C307.467 176.825 302.8 160.158 293.333 122.691L279.733 67.7579H260.667H241.733L212.533 120.558C196.533 149.625 182.533 174.425 181.6 175.625C180 177.491 180 177.491 180.533 175.091C180.933 173.625 185.733 146.025 191.333 113.758C204.933 34.5579 204.933 34.6912 209.2 34.0245C211.067 33.7579 239.733 33.3579 272.8 33.2245L332.8 33.0912L330.533 48.0245ZM416.533 40.0245C415.333 50.1579 380.4 251.758 377.733 264.025L375.6 274.425H361.067H346.533L347.333 268.025C348.8 257.491 384.133 48.8245 385.467 42.4245C386.267 39.0912 387.067 35.6245 387.467 34.6912C387.733 33.4912 392 33.0912 402.667 33.0912H417.467L416.533 40.0245ZM595.2 41.3579C594.8 46.0245 586.933 98.2912 577.733 157.758C568.533 217.091 560.8 267.758 560.4 270.025L559.733 274.425H496.533H433.333L434.133 268.025C434.533 264.558 437.867 243.358 441.467 220.958C445.067 198.425 448 179.358 448 178.558C448 177.491 459.6 177.091 489.2 177.091H530.4L531.2 173.358C532.533 166.825 538.667 126.825 538.667 124.558C538.667 122.691 534.667 122.425 498.933 122.425H459.067L461.467 108.025C462.8 100.158 464.267 91.7579 464.667 89.3579L465.467 85.0912H516.667H567.733L570 72.0245C571.2 64.9579 573.067 55.7579 574 51.7579C574.933 47.7579 576.133 41.8912 576.667 38.6912L577.6 33.0912H586.8H596.133L595.2 41.3579ZM752.133 52.0245C740.267 75.3579 692 165.491 690.667 166.825C689.733 167.891 663.333 64.0245 660 46.1579C659.2 42.2912 658.267 38.0245 657.867 36.6912C657.2 34.5579 660.267 34.4245 709.2 34.4245H761.2L752.133 52.0245ZM882.667 35.2245C882.667 35.6245 872.667 74.5579 860.533 121.491C836.533 214.558 836 216.158 822.933 230.558C816.133 238.025 798.533 251.758 795.733 251.758C794.933 251.758 794.8 249.491 795.2 246.691C795.733 244.025 796.267 239.091 796.667 235.758C797.6 226.558 823.733 57.8912 826.267 45.3579L828.4 34.4245H855.467C870.4 34.4245 882.667 34.8245 882.667 35.2245ZM146.267 56.0245C144.533 67.7579 112.4 255.891 110.4 266.025L108.667 274.425H81.0667C65.7333 274.425 53.3333 274.025 53.3333 273.625C53.3333 270.558 92.5333 102.558 94.2667 98.1579C99.3333 85.0912 110.933 70.4245 123.067 61.4912C129.067 57.0912 144.933 47.8912 146.8 47.7579C147.2 47.7579 146.933 51.4912 146.267 56.0245ZM750 192.558C745.2 223.225 740.267 253.625 739.067 260.025L736.8 271.491L732.133 272.425C729.467 272.825 701.6 273.625 670.133 274.025L612.933 274.691L613.867 266.825C615.333 252.691 633.867 137.091 634.667 137.091C635.067 137.091 641.6 161.358 649.2 191.091L663.2 245.225L681.867 244.825L700.667 244.425L729.2 190.025C744.8 160.158 757.867 135.891 758.133 136.158C758.533 136.425 754.8 161.758 750 192.558ZM263.333 194.425C273.867 237.891 281.333 270.691 281.333 273.358C281.333 273.891 258.267 274.425 230.133 274.425H178.8L184.533 263.358C188.667 255.358 243.733 157.225 250.4 145.758C251.333 144.158 250.133 139.758 263.333 194.425Z" fill="white" stroke="#141D24" stroke-width="14" mask="url(#path-1-inside-1_4_13)"/>
</svg>
